<svg width="40" height="40" viewBox="0 0 40 40" fill="none" xmlns="http://www.w3.org/2000/svg">
  <!-- Main circle -->
  <circle cx="20" cy="20" r="19" fill="#D62828" stroke="#000000" stroke-width="2"/>

  <!-- Holes -->
  <ellipse cx="10" cy="8" rx="2.5" ry="4" fill="#FFFFFF" stroke="#000000" stroke-width="1"/>
  <ellipse cx="18" cy="6" rx="3" ry="3.5" fill="#FFFFFF" stroke="#000000" stroke-width="1"/>
  <ellipse cx="29" cy="7" rx="2" ry="3" fill="#FFFFFF" stroke="#000000" stroke-width="1"/>

  <ellipse cx="8" cy="16" rx="1.5" ry="3.5" fill="#FFFFFF" stroke="#000000" stroke-width="1"/>
  <ellipse cx="15" cy="15" rx="3" ry="3.5" fill="#FFFFFF" stroke="#000000" stroke-width="1"/>
  <ellipse cx="25" cy="14" rx="3" ry="3.5" fill="#FFFFFF" stroke="#000000" stroke-width="1"/>
  <ellipse cx="32" cy="18" rx="1.5" ry="3" fill="#FFFFFF" stroke="#000000" stroke-width="1"/>

  <ellipse cx="12" cy="24" rx="3" ry="3.5" fill="#FFFFFF" stroke="#000000" stroke-width="1"/>
  <ellipse cx="20" cy="25" rx="3" ry="3.5" fill="#FFFFFF" stroke="#000000" stroke-width="1"/>
  <ellipse cx="28" cy="26" rx="3" ry="3.5" fill="#FFFFFF" stroke="#000000" stroke-width="1"/>

  <ellipse cx="8" cy="32" rx="1.5" ry="2.5" fill="#FFFFFF" stroke="#000000" stroke-width="1"/>
  <ellipse cx="16" cy="34" rx="2.5" ry="2" fill="#FFFFFF" stroke="#000000" stroke-width="1"/>
  <ellipse cx="24" cy="35" rx="2.5" ry="2" fill="#FFFFFF" stroke="#000000" stroke-width="1"/>
  <ellipse cx="32" cy="31" rx="1.5" ry="2.5" fill="#FFFFFF" stroke="#000000" stroke-width="1"/>
</svg>
